<svg xmlns="http://www.w3.org/2000/svg" viewBox="0 0 420 300" role="img" aria-labelledby="title desc">
  <title id="title">Mapping Me workbook library preview</title>
  <desc id="desc">A warm illustrated preview of the Mapping Me workbook library interface.</desc>
  <rect width="420" height="300" rx="18" fill="#fffaf0"/>
  <rect x="20" y="20" width="380" height="260" rx="16" fill="#f8d888" stroke="#241f1b" stroke-width="5"/>
  <rect x="42" y="44" width="144" height="18" rx="9" fill="#ef7d32"/>
  <rect x="42" y="74" width="214" height="20" rx="10" fill="#241f1b"/>
  <rect x="42" y="110" width="320" height="10" rx="5" fill="#7a6a5e"/>
  <rect x="42" y="130" width="270" height="10" rx="5" fill="#7a6a5e"/>
  <g stroke="#241f1b" stroke-width="4">
    <rect x="42" y="166" width="96" height="72" rx="10" fill="#f7cfda"/>
    <rect x="162" y="166" width="96" height="72" rx="10" fill="#b7d9d0"/>
    <rect x="282" y="166" width="80" height="72" rx="10" fill="#f4f0e8"/>
  </g>
  <g fill="#241f1b">
    <rect x="58" y="186" width="52" height="8" rx="4"/>
    <rect x="58" y="204" width="64" height="7" rx="3.5"/>
    <rect x="178" y="186" width="48" height="8" rx="4"/>
    <rect x="178" y="204" width="58" height="7" rx="3.5"/>
    <rect x="298" y="186" width="42" height="8" rx="4"/>
    <rect x="298" y="204" width="36" height="7" rx="3.5"/>
  </g>
  <circle cx="344" cy="70" r="28" fill="#b7d9d0" stroke="#241f1b" stroke-width="4"/>
  <path d="M332 68c8-12 17-12 25 0M334 82c8 7 16 7 24 0" fill="none" stroke="#241f1b" stroke-width="4" stroke-linecap="round"/>
</svg>
